<svg width="1716" height="1708" viewBox="0 0 1716 1708" fill="none" xmlns="http://www.w3.org/2000/svg">
<path d="M469.892 1707.53C507.812 1707.53 539.421 1693.01 585.426 1652.01L881.688 1392.01H1326.78C1564.77 1392.01 1716 1240 1716 1003.04V389.215C1716 152.254 1564.77 0 1326.78 0H389.217C151.222 0 0 152.225 0 389.215V1003.04C0 1240.03 165.34 1392.01 368.041 1392.01H380.42V1609.6C380.42 1670.06 414.728 1707.53 469.892 1707.53ZM461.49 518.381C429.343 518.381 400.838 488.464 400.838 454.654C400.838 420.627 428.637 392.122 461.49 392.122H1252.31C1287.28 392.122 1316.04 420.627 1316.04 454.654C1316.04 488.464 1287.28 518.381 1252.31 518.381H461.49ZM461.49 758.15C429.343 758.15 400.838 728.235 400.838 694.41C400.838 661.103 428.637 631.641 461.49 631.641H1252.31C1287.28 631.641 1316.04 660.398 1316.04 694.41C1316.04 728.235 1287.28 758.15 1252.31 758.15H461.49ZM461.49 997.67C429.343 997.67 400.838 967.767 400.838 934.194C400.838 900.385 428.637 871.173 461.49 871.173H980.741C1015.71 871.173 1042.8 899.679 1042.8 934.194C1042.8 967.767 1015.71 997.67 980.741 997.67H461.49Z" fill="white"/>
</svg>
