<svg width="143" height="142" viewBox="0 0 143 142" fill="none" xmlns="http://www.w3.org/2000/svg">
<path d="M39.2841 141.889C42.4217 141.889 45.0371 140.688 48.8437 137.296L73.3571 115.782H110.185C129.877 115.782 142.39 103.205 142.39 83.5982V32.8086C142.39 13.2019 129.877 0.604004 110.185 0.604004H32.6089C12.9166 0.604004 0.404053 13.1995 0.404053 32.8086V83.5982C0.404053 103.207 14.0847 115.782 30.8567 115.782H31.881V133.786C31.881 138.789 34.7197 141.889 39.2841 141.889ZM58.0148 83.2919C54.5775 85.6789 50.6429 83.4528 52.2513 79.0004L57.4666 63.3305L43.8908 53.6601C40.8011 51.5259 41.5531 46.8051 46.0753 46.8051L62.834 46.922L67.8688 31.1365C69.2968 26.9694 73.5958 26.9682 75.0238 31.1365L80.0378 46.922L96.7961 46.8051C101.437 46.8051 101.875 51.4675 98.9031 53.6601L85.4261 63.2721L90.5841 79.0004C92.2091 83.6864 88.2371 85.6205 84.8571 83.2919L71.4865 73.4075L58.0148 83.2919Z" fill="white"/>
</svg>
